<mxfile host="app.diagrams.net" agent="Mozilla/5.0 (Macintosh; Intel Mac OS X 10_15_7) AppleWebKit/537.36 (KHTML, like Gecko) Chrome/128.0.0.0 Safari/537.36" version="24.7.8" pages="3">
  <diagram id="QR8V1_dRtChXC7lab5na" name="ModeloConceitual">
    <mxGraphModel dx="1026" dy="650" grid="1" gridSize="10" guides="1" tooltips="1" connect="1" arrows="1" fold="1" page="1" pageScale="1" pageWidth="827" pageHeight="1169" math="0" shadow="0">
      <root>
        <mxCell id="0" />
        <mxCell id="1" parent="0" />
        <mxCell id="aj3h1EUnyRg5z9keWe_K-21" style="edgeStyle=orthogonalEdgeStyle;rounded=0;orthogonalLoop=1;jettySize=auto;html=1;exitX=1;exitY=0.5;exitDx=0;exitDy=0;entryX=0;entryY=0.5;entryDx=0;entryDy=0;" edge="1" parent="1" source="aj3h1EUnyRg5z9keWe_K-3" target="aj3h1EUnyRg5z9keWe_K-20">
          <mxGeometry relative="1" as="geometry">
            <mxPoint x="290" y="80" as="targetPoint" />
          </mxGeometry>
        </mxCell>
        <mxCell id="aj3h1EUnyRg5z9keWe_K-3" value="Usuario" style="whiteSpace=wrap;html=1;align=center;" vertex="1" parent="1">
          <mxGeometry x="60" y="60" width="100" height="40" as="geometry" />
        </mxCell>
        <mxCell id="aj3h1EUnyRg5z9keWe_K-19" style="edgeStyle=orthogonalEdgeStyle;rounded=0;orthogonalLoop=1;jettySize=auto;html=1;exitX=1;exitY=0.5;exitDx=0;exitDy=0;entryX=0;entryY=0.5;entryDx=0;entryDy=0;" edge="1" parent="1" source="aj3h1EUnyRg5z9keWe_K-4" target="aj3h1EUnyRg5z9keWe_K-9">
          <mxGeometry relative="1" as="geometry" />
        </mxCell>
        <mxCell id="aj3h1EUnyRg5z9keWe_K-4" value="Teste" style="whiteSpace=wrap;html=1;align=center;" vertex="1" parent="1">
          <mxGeometry x="255" y="310" width="100" height="40" as="geometry" />
        </mxCell>
        <mxCell id="aj3h1EUnyRg5z9keWe_K-6" value="Perguntas" style="whiteSpace=wrap;html=1;align=center;" vertex="1" parent="1">
          <mxGeometry x="275" y="400" width="100" height="40" as="geometry" />
        </mxCell>
        <mxCell id="aj3h1EUnyRg5z9keWe_K-11" style="edgeStyle=orthogonalEdgeStyle;rounded=0;orthogonalLoop=1;jettySize=auto;html=1;exitX=0.5;exitY=1;exitDx=0;exitDy=0;entryX=0.5;entryY=0;entryDx=0;entryDy=0;" edge="1" parent="1" source="aj3h1EUnyRg5z9keWe_K-7" target="aj3h1EUnyRg5z9keWe_K-10">
          <mxGeometry relative="1" as="geometry" />
        </mxCell>
        <mxCell id="aj3h1EUnyRg5z9keWe_K-24" style="edgeStyle=orthogonalEdgeStyle;rounded=0;orthogonalLoop=1;jettySize=auto;html=1;entryX=0;entryY=0.5;entryDx=0;entryDy=0;" edge="1" parent="1" source="aj3h1EUnyRg5z9keWe_K-7" target="aj3h1EUnyRg5z9keWe_K-4">
          <mxGeometry relative="1" as="geometry" />
        </mxCell>
        <mxCell id="aj3h1EUnyRg5z9keWe_K-7" value="Area de Conhecimento" style="whiteSpace=wrap;html=1;align=center;" vertex="1" parent="1">
          <mxGeometry x="60" y="310" width="110" height="40" as="geometry" />
        </mxCell>
        <mxCell id="aj3h1EUnyRg5z9keWe_K-9" value="TipoDeTeste" style="whiteSpace=wrap;html=1;align=center;" vertex="1" parent="1">
          <mxGeometry x="405" y="310" width="100" height="40" as="geometry" />
        </mxCell>
        <mxCell id="aj3h1EUnyRg5z9keWe_K-12" style="edgeStyle=orthogonalEdgeStyle;rounded=0;orthogonalLoop=1;jettySize=auto;html=1;exitX=1;exitY=0.5;exitDx=0;exitDy=0;entryX=0;entryY=0.5;entryDx=0;entryDy=0;" edge="1" parent="1" source="aj3h1EUnyRg5z9keWe_K-10" target="aj3h1EUnyRg5z9keWe_K-6">
          <mxGeometry relative="1" as="geometry" />
        </mxCell>
        <mxCell id="aj3h1EUnyRg5z9keWe_K-10" value="Dominio" style="whiteSpace=wrap;html=1;align=center;" vertex="1" parent="1">
          <mxGeometry x="65" y="400" width="100" height="40" as="geometry" />
        </mxCell>
        <mxCell id="aj3h1EUnyRg5z9keWe_K-16" style="edgeStyle=orthogonalEdgeStyle;rounded=0;orthogonalLoop=1;jettySize=auto;html=1;exitX=1;exitY=0.5;exitDx=0;exitDy=0;entryX=0;entryY=0.5;entryDx=0;entryDy=0;" edge="1" parent="1" source="aj3h1EUnyRg5z9keWe_K-13" target="aj3h1EUnyRg5z9keWe_K-15">
          <mxGeometry relative="1" as="geometry" />
        </mxCell>
        <mxCell id="aj3h1EUnyRg5z9keWe_K-13" value="HistÃ³rico de Testes" style="whiteSpace=wrap;html=1;align=center;" vertex="1" parent="1">
          <mxGeometry x="470" y="60" width="100" height="40" as="geometry" />
        </mxCell>
        <mxCell id="aj3h1EUnyRg5z9keWe_K-14" value="Perguntas Resolvidas" style="whiteSpace=wrap;html=1;align=center;" vertex="1" parent="1">
          <mxGeometry x="640" y="150" width="100" height="40" as="geometry" />
        </mxCell>
        <mxCell id="aj3h1EUnyRg5z9keWe_K-18" style="edgeStyle=orthogonalEdgeStyle;rounded=0;orthogonalLoop=1;jettySize=auto;html=1;exitX=0.5;exitY=1;exitDx=0;exitDy=0;entryX=0.5;entryY=0;entryDx=0;entryDy=0;" edge="1" parent="1" source="aj3h1EUnyRg5z9keWe_K-15" target="aj3h1EUnyRg5z9keWe_K-14">
          <mxGeometry relative="1" as="geometry" />
        </mxCell>
        <mxCell id="aj3h1EUnyRg5z9keWe_K-15" value="TipoDeTeste" style="whiteSpace=wrap;html=1;align=center;" vertex="1" parent="1">
          <mxGeometry x="640" y="60" width="100" height="40" as="geometry" />
        </mxCell>
        <mxCell id="aj3h1EUnyRg5z9keWe_K-25" style="edgeStyle=orthogonalEdgeStyle;rounded=0;orthogonalLoop=1;jettySize=auto;html=1;exitX=0.5;exitY=1;exitDx=0;exitDy=0;entryX=0.5;entryY=0;entryDx=0;entryDy=0;" edge="1" parent="1" source="aj3h1EUnyRg5z9keWe_K-20" target="aj3h1EUnyRg5z9keWe_K-22">
          <mxGeometry relative="1" as="geometry" />
        </mxCell>
        <mxCell id="aj3h1EUnyRg5z9keWe_K-20" value="Plano de Estudos" style="whiteSpace=wrap;html=1;align=center;" vertex="1" parent="1">
          <mxGeometry x="300" y="60" width="100" height="40" as="geometry" />
        </mxCell>
        <mxCell id="aj3h1EUnyRg5z9keWe_K-22" value="Agendamento Testes" style="whiteSpace=wrap;html=1;align=center;" vertex="1" parent="1">
          <mxGeometry x="300" y="130" width="100" height="40" as="geometry" />
        </mxCell>
        <mxCell id="aj3h1EUnyRg5z9keWe_K-23" style="edgeStyle=orthogonalEdgeStyle;rounded=0;orthogonalLoop=1;jettySize=auto;html=1;exitX=1;exitY=0.5;exitDx=0;exitDy=0;entryX=0.44;entryY=1;entryDx=0;entryDy=0;entryPerimeter=0;" edge="1" parent="1" source="aj3h1EUnyRg5z9keWe_K-22" target="aj3h1EUnyRg5z9keWe_K-13">
          <mxGeometry relative="1" as="geometry" />
        </mxCell>
        <mxCell id="aj3h1EUnyRg5z9keWe_K-26" value="Tratamento das Lacunas" style="whiteSpace=wrap;html=1;align=center;" vertex="1" parent="1">
          <mxGeometry x="300" y="200" width="100" height="40" as="geometry" />
        </mxCell>
      </root>
    </mxGraphModel>
  </diagram>
  <diagram id="qq55OB-4lLZWazGmophJ" name="ModeloLogico">
    <mxGraphModel dx="1026" dy="650" grid="1" gridSize="10" guides="1" tooltips="1" connect="1" arrows="1" fold="1" page="1" pageScale="1" pageWidth="827" pageHeight="1169" math="0" shadow="0">
      <root>
        <mxCell id="0" />
        <mxCell id="1" parent="0" />
      </root>
    </mxGraphModel>
  </diagram>
  <diagram id="pjtMkpR0QFNeXGmRAc_Z" name="ModeloFisico">
    <mxGraphModel dx="1026" dy="650" grid="1" gridSize="10" guides="1" tooltips="1" connect="1" arrows="1" fold="1" page="1" pageScale="1" pageWidth="827" pageHeight="1169" math="0" shadow="0">
      <root>
        <mxCell id="0" />
        <mxCell id="1" parent="0" />
      </root>
    </mxGraphModel>
  </diagram>
</mxfile>
